{
    "asset" : {
        "generator" : "Khronos glTF Blender I/O v1.5.17",
        "version" : "2.0"
    },
    "scene" : 0,
    "scenes" : [
        {
            "name" : "Scene",
            "nodes" : [
                0
            ]
        }
    ],
    "nodes" : [
        {
            "mesh" : 0,
            "name" : "Car"
        }
    ],
    "materials" : [
        {
            "doubleSided" : true,
            "name" : "Body",
            "pbrMetallicRoughness" : {
                "baseColorFactor" : [
                    1,
                    0,
                    0,
                    1
                ],
                "metallicFactor" : 0,
                "roughnessFactor" : 0.5
            }
        },
        {
            "doubleSided" : true,
            "name" : "Black",
            "pbrMetallicRoughness" : {
                "baseColorFactor" : [
                    0,
                    0,
                    0,
                    1
                ],
                "metallicFactor" : 0,
                "roughnessFactor" : 0.5
            }
        },
        {
            "doubleSided" : true,
            "name" : "Window",
            "pbrMetallicRoughness" : {
                "baseColorFactor" : [
                    0,
                    0,
                    0,
                    1
                ],
                "metallicFactor" : 0,
                "roughnessFactor" : 0.5
            }
        },
        {
            "doubleSided" : true,
            "name" : "Bumpers",
            "pbrMetallicRoughness" : {
                "baseColorFactor" : [
                    0.07323581725358963,
                    0.07323581725358963,
                    0.07323581725358963,
                    1
                ],
                "metallicFactor" : 0,
                "roughnessFactor" : 0.5
            }
        },
        {
            "doubleSided" : true,
            "name" : "Lights",
            "pbrMetallicRoughness" : {
                "baseColorFactor" : [
                    1,
                    1,
                    1,
                    1
                ],
                "metallicFactor" : 0,
                "roughnessFactor" : 0.5
            }
        },
        {
            "doubleSided" : true,
            "name" : "Bottom",
            "pbrMetallicRoughness" : {
                "baseColorFactor" : [
                    0,
                    0,
                    0,
                    1
                ],
                "metallicFactor" : 0,
                "roughnessFactor" : 0.5
            }
        },
        {
            "doubleSided" : true,
            "name" : "Tires",
            "pbrMetallicRoughness" : {
                "baseColorFactor" : [
                    0,
                    0,
                    0,
                    1
                ],
                "metallicFactor" : 0,
                "roughnessFactor" : 0.5
            }
        },
        {
            "doubleSided" : true,
            "name" : "Wheels",
            "pbrMetallicRoughness" : {
                "baseColorFactor" : [
                    0.6151773929595947,
                    0.6151773929595947,
                    0.6151773929595947,
                    1
                ],
                "metallicFactor" : 0,
                "roughnessFactor" : 0.5
            }
        }
    ],
    "meshes" : [
        {
            "name" : "Cube",
            "primitives" : [
                {
                    "attributes" : {
                        "POSITION" : 0,
                        "NORMAL" : 1
                    },
                    "indices" : 2,
                    "material" : 0
                },
                {
                    "attributes" : {
                        "POSITION" : 3,
                        "NORMAL" : 4
                    },
                    "indices" : 5,
                    "material" : 1
                },
                {
                    "attributes" : {
                        "POSITION" : 6,
                        "NORMAL" : 7
                    },
                    "indices" : 8,
                    "material" : 2
                },
                {
                    "attributes" : {
                        "POSITION" : 9,
                        "NORMAL" : 10
                    },
                    "indices" : 11,
                    "material" : 3
                },
                {
                    "attributes" : {
                        "POSITION" : 12,
                        "NORMAL" : 13
                    },
                    "indices" : 14,
                    "material" : 4
                },
                {
                    "attributes" : {
                        "POSITION" : 15,
                        "NORMAL" : 16
                    },
                    "indices" : 17,
                    "material" : 5
                },
                {
                    "attributes" : {
                        "POSITION" : 18,
                        "NORMAL" : 19
                    },
                    "indices" : 20,
                    "material" : 6
                },
                {
                    "attributes" : {
                        "POSITION" : 21,
                        "NORMAL" : 22
                    },
                    "indices" : 23,
                    "material" : 7
                }
            ]
        }
    ],
    "accessors" : [
        {
            "bufferView" : 0,
            "componentType" : 5126,
            "count" : 307,
            "max" : [
                1.0074433088302612,
                1.5899966955184937,
                2.24019193649292
            ],
            "min" : [
                -0.9925566911697388,
                0.45208021998405457,
                -2.1748080253601074
            ],
            "type" : "VEC3"
        },
        {
            "bufferView" : 1,
            "componentType" : 5126,
            "count" : 307,
            "type" : "VEC3"
        },
        {
            "bufferView" : 2,
            "componentType" : 5123,
            "count" : 606,
            "type" : "SCALAR"
        },
        {
            "bufferView" : 3,
            "componentType" : 5126,
            "count" : 80,
            "max" : [
                0.9616620540618896,
                1.5514967441558838,
                0.8227230310440063
            ],
            "min" : [
                -0.9467754364013672,
                1.0139968395233154,
                -1.628589391708374
            ],
            "type" : "VEC3"
        },
        {
            "bufferView" : 4,
            "componentType" : 5126,
            "count" : 80,
            "type" : "VEC3"
        },
        {
            "bufferView" : 5,
            "componentType" : 5123,
            "count" : 168,
            "type" : "SCALAR"
        },
        {
            "bufferView" : 6,
            "componentType" : 5126,
            "count" : 102,
            "max" : [
                0.9616620540618896,
                1.5380717515945435,
                0.8075027465820312
            ],
            "min" : [
                -0.9467754364013672,
                1.025621771812439,
                -1.6203064918518066
            ],
            "type" : "VEC3"
        },
        {
            "bufferView" : 7,
            "componentType" : 5126,
            "count" : 102,
            "type" : "VEC3"
        },
        {
            "bufferView" : 8,
            "componentType" : 5123,
            "count" : 186,
            "type" : "SCALAR"
        },
        {
            "bufferView" : 9,
            "componentType" : 5126,
            "count" : 163,
            "max" : [
                1.0574432611465454,
                0.762496829032898,
                2.3901920318603516
            ],
            "min" : [
                -1.042556643486023,
                0.29999685287475586,
                -2.274807929992676
            ],
            "type" : "VEC3"
        },
        {
            "bufferView" : 10,
            "componentType" : 5126,
            "count" : 163,
            "type" : "VEC3"
        },
        {
            "bufferView" : 11,
            "componentType" : 5123,
            "count" : 480,
            "type" : "SCALAR"
        },
        {
            "bufferView" : 12,
            "componentType" : 5126,
            "count" : 8,
            "max" : [
                0.9682505130767822,
                0.9317012429237366,
                2.1878244876861572
            ],
            "min" : [
                -0.9533542394638062,
                0.6798250079154968,
                2.0603244304656982
            ],
            "type" : "VEC3"
        },
        {
            "bufferView" : 13,
            "componentType" : 5126,
            "count" : 8,
            "type" : "VEC3"
        },
        {
            "bufferView" : 14,
            "componentType" : 5123,
            "count" : 12,
            "type" : "SCALAR"
        },
        {
            "bufferView" : 15,
            "componentType" : 5126,
            "count" : 41,
            "max" : [
                0.9824433326721191,
                0.29999685287475586,
                2.225191831588745
            ],
            "min" : [
                -0.9675567150115967,
                0.29999685287475586,
                -2.1748080253601074
            ],
            "type" : "VEC3"
        },
        {
            "bufferView" : 16,
            "componentType" : 5126,
            "count" : 41,
            "type" : "VEC3"
        },
        {
            "bufferView" : 17,
            "componentType" : 5123,
            "count" : 144,
            "type" : "SCALAR"
        },
        {
            "bufferView" : 18,
            "componentType" : 5126,
            "count" : 1024,
            "max" : [
                0.9999433755874634,
                0.7999967336654663,
                1.6851916313171387
            ],
            "min" : [
                -0.9850567579269409,
                -3.3080577850341797e-06,
                -1.6748082637786865
            ],
            "type" : "VEC3"
        },
        {
            "bufferView" : 19,
            "componentType" : 5126,
            "count" : 1024,
            "type" : "VEC3"
        },
        {
            "bufferView" : 20,
            "componentType" : 5123,
            "count" : 5376,
            "type" : "SCALAR"
        },
        {
            "bufferView" : 21,
            "componentType" : 5126,
            "count" : 256,
            "max" : [
                0.9856933355331421,
                0.6564966440200806,
                1.541691541671753
            ],
            "min" : [
                -0.9708067178726196,
                0.1434967815876007,
                -1.5313084125518799
            ],
            "type" : "VEC3"
        },
        {
            "bufferView" : 22,
            "componentType" : 5126,
            "count" : 256,
            "type" : "VEC3"
        },
        {
            "bufferView" : 23,
            "componentType" : 5123,
            "count" : 720,
            "type" : "SCALAR"
        }
    ],
    "bufferViews" : [
        {
            "buffer" : 0,
            "byteLength" : 3684,
            "byteOffset" : 0
        },
        {
            "buffer" : 0,
            "byteLength" : 3684,
            "byteOffset" : 3684
        },
        {
            "buffer" : 0,
            "byteLength" : 1212,
            "byteOffset" : 7368
        },
        {
            "buffer" : 0,
            "byteLength" : 960,
            "byteOffset" : 8580
        },
        {
            "buffer" : 0,
            "byteLength" : 960,
            "byteOffset" : 9540
        },
        {
            "buffer" : 0,
            "byteLength" : 336,
            "byteOffset" : 10500
        },
        {
            "buffer" : 0,
            "byteLength" : 1224,
            "byteOffset" : 10836
        },
        {
            "buffer" : 0,
            "byteLength" : 1224,
            "byteOffset" : 12060
        },
        {
            "buffer" : 0,
            "byteLength" : 372,
            "byteOffset" : 13284
        },
        {
            "buffer" : 0,
            "byteLength" : 1956,
            "byteOffset" : 13656
        },
        {
            "buffer" : 0,
            "byteLength" : 1956,
            "byteOffset" : 15612
        },
        {
            "buffer" : 0,
            "byteLength" : 960,
            "byteOffset" : 17568
        },
        {
            "buffer" : 0,
            "byteLength" : 96,
            "byteOffset" : 18528
        },
        {
            "buffer" : 0,
            "byteLength" : 96,
            "byteOffset" : 18624
        },
        {
            "buffer" : 0,
            "byteLength" : 24,
            "byteOffset" : 18720
        },
        {
            "buffer" : 0,
            "byteLength" : 492,
            "byteOffset" : 18744
        },
        {
            "buffer" : 0,
            "byteLength" : 492,
            "byteOffset" : 19236
        },
        {
            "buffer" : 0,
            "byteLength" : 288,
            "byteOffset" : 19728
        },
        {
            "buffer" : 0,
            "byteLength" : 12288,
            "byteOffset" : 20016
        },
        {
            "buffer" : 0,
            "byteLength" : 12288,
            "byteOffset" : 32304
        },
        {
            "buffer" : 0,
            "byteLength" : 10752,
            "byteOffset" : 44592
        },
        {
            "buffer" : 0,
            "byteLength" : 3072,
            "byteOffset" : 55344
        },
        {
            "buffer" : 0,
            "byteLength" : 3072,
            "byteOffset" : 58416
        },
        {
            "buffer" : 0,
            "byteLength" : 1440,
            "byteOffset" : 61488
        }
    ],
    "buffers" : [
        {
            "byteLength" : 62928,
            "uri" : "data:application/octet-stream;base64,"
        }
    ]
}
